# xmcd
#
# Track frame offsets:
#	150
#	13399
#	21339
#	30371
#	41686
#	53549
#	66743
#	83152
#	90114
#	103348
#	121890
#
# Disc length: 1870 seconds
#
# Revision: 0
# Processed by: cddbd v1.5.2PL0 Copyright (c) Steve Scherf et al.
# Submitted via: dBpowerAMP V4.0
#
DISCID=89074c0b
DTITLE=The Rebel - Titrack Luxury or Bums On A Rock
DYEAR=1900
DGENRE=Country/Punk
TTITLE0=The Rocket
TTITLE1=3 Bums On A Rock - Bum A - Larry 'The Wine' Hardys
TTITLE2=Please Ban Music
TTITLE3=Keith
TTITLE4=The Journeys of Edyseus Who Never Went Anywhere Because He Was A Lazy Fucking Bastard
TTITLE5=Second Bum - Phil 'Mycup' Wilson
TTITLE6=Man V Cock
TTITLE7=Earn Your Rights To Multitrack Luxuries
TTITLE8=Spiderman In The Flesh
TTITLE9=Turtle V Octopus
TTITLE10=Bums On A Rock 3 - The Rebel and His Parents
EXTD=
EXTT0=
EXTT1=
EXTT2=
EXTT3=
EXTT4=
EXTT5=
EXTT6=
EXTT7=
EXTT8=
EXTT9=
EXTT10=
PLAYORDER=
